<svg height="512" viewBox="0 0 120 120" width="512" xmlns="http://www.w3.org/2000/svg"><path d="m37.65 94.81v14.44h-5.9v-14.42z" fill="#e4b190"/><path d="m58.33 94.82h-47.26a2 2 0 0 1 -1.67-3.09l8.08-12.37a6 6 0 0 1 5-2.71h24.4a6 6 0 0 1 5 2.71l8.12 12.36a2 2 0 0 1 -1.67 3.1z" fill="#85be64"/><path d="m21.19 54.63 11.87-17.27a2 2 0 0 1 3.29 0l11.88 17.27a2 2 0 0 1 -1.65 3.13h-23.75a2 2 0 0 1 -1.64-3.13z" fill="#cde4c1"/><path d="m52.19 76.65h-34.95a2 2 0 0 1 -1.72-3l7.72-12.93a6 6 0 0 1 5.16-2.92h12.6a6 6 0 0 1 5.15 2.92l7.75 12.9a2 2 0 0 1 -1.71 3.03z" fill="#aade8b"/><g fill="#f7cb46"><path d="m98.15 29.51a11.63 11.63 0 0 1 -5 3.92 11.78 11.78 0 1 1 -2.66-22.53 10.13 10.13 0 0 0 7.66 18.61z"/><path d="m48.04 20.89 4.62-2.63-4.58-2.61-2.62-4.59-2.63 4.62-4.57 2.58 4.61 2.6 2.59 4.6z"/><path d="m62.92 37.17 3.35-1.91-3.33-1.9-1.89-3.33-1.91 3.36-3.32 1.87 3.34 1.88 1.89 3.35z"/><path d="m18.67 34.64 3.35-1.91-3.32-1.9-1.9-3.33-1.91 3.36-3.32 1.87 3.34 1.88 1.89 3.35z"/><path d="m99.29 49.05 3.35-1.91-3.33-1.89-1.89-3.33-1.91 3.35-3.32 1.87 3.34 1.89 1.89 3.34z"/></g><path d="m37.66 109.24 36.01-58.77 36 58.77z" fill="#6f58ff"/><path d="m89.63 109.24h-31.93l15.97-26.05z" fill="#d5e1ff"/><path d="m57.7 109.25 4.24-22.82 11.73-3.24z" fill="#f7cb46"/><circle cx="73.66" cy="72.37" fill="#f7cb46" r="5.06"/><g fill="#420b7e"><path d="m83.53 34.8a13.35 13.35 0 0 0 15.83-4.41 1.49 1.49 0 0 0 -1.62-2.32 8.63 8.63 0 0 1 -6.53-15.85 1.51 1.51 0 0 0 -.48-2.8c-15.55-2.09-21.54 19.01-7.2 25.38zm-4.37-16.22a10.26 10.26 0 0 1 7.1-6c-5.67 6.89-1.17 17.81 7.74 18.75-8.41 5.15-18.69-3.67-14.84-12.75z"/><path d="m37.53 19.57 4.24 2.43 2.38 4.24a1.51 1.51 0 0 0 2.62 0l2.37-4.24 4.26-2.42a1.51 1.51 0 0 0 .76-1.31 1.5 1.5 0 0 0 -.76-1.27l-4.23-2.41-2.41-4.23a1.55 1.55 0 0 0 -1.3-.76 1.48 1.48 0 0 0 -1.3.76l-2.43 4.26-4.21 2.38a1.51 1.51 0 0 0 .01 2.57zm6-2.58c.58-.23 1.55-2.42 1.89-2.9.35.49 1.29 2.62 1.87 2.86l2.3 1.31c-.49.35-2.66 1.31-2.9 1.89l-1.27 2.26c-.35-.5-1.26-2.62-1.86-2.86l-2.28-1.29z"/><path d="m55.08 36.57 3 1.67 1.68 3a1.5 1.5 0 0 0 1.31.77 1.47 1.47 0 0 0 1.3-.77l1.63-2.97 3-1.71a1.5 1.5 0 0 0 0-2.56l-3-1.7-1.69-3a1.5 1.5 0 0 0 -2.61 0l-1.7 3-3 1.66a1.52 1.52 0 0 0 .08 2.61zm4.79-1.88c.51-.22.9-1.19 1.18-1.63.28.44.65 1.37 1.15 1.6l1 .6c-.44.28-1.4.66-1.63 1.17l-.56 1c-.28-.44-.64-1.36-1.15-1.6l-1-.57z"/><path d="m10.84 34 3 1.67 1.68 3a1.5 1.5 0 0 0 1.31.77 1.47 1.47 0 0 0 1.3-.77l1.67-2.95 3-1.7a1.52 1.52 0 0 0 .75-1.31 1.49 1.49 0 0 0 -.75-1.3l-3-1.7-1.69-3a1.5 1.5 0 0 0 -1.31-.71 1.53 1.53 0 0 0 -1.31.76l-1.7 3-3 1.66a1.52 1.52 0 0 0 .05 2.58zm4.79-1.87c.5-.23.89-1.2 1.17-1.63.28.43.65 1.36 1.15 1.6l1 .59c-.44.29-1.39.66-1.63 1.17l-.56 1c-.28-.44-.64-1.36-1.15-1.59l-1-.58z"/><path d="m97.42 40.42a1.51 1.51 0 0 0 -1.31.76l-1.7 3-3 1.67a1.5 1.5 0 0 0 0 2.61l3 1.68 1.68 3a1.5 1.5 0 0 0 2.61 0l1.67-3 3-1.7a1.51 1.51 0 0 0 0-2.61l-3-1.69-1.69-3a1.51 1.51 0 0 0 -1.26-.72zm1.13 7.33c-.5.23-.86 1.13-1.13 1.56-.28-.44-.64-1.36-1.15-1.59l-1-.58c.43-.28 1.33-.63 1.56-1.13l.59-1.01c.28.44.65 1.37 1.15 1.6l1 .59z"/><path d="m111.36 103.53a1.49 1.49 0 0 0 -1.86 1l-.31 1-33.77-55.06 4.19-6.85a1.5 1.5 0 0 0 -2.56-1.56l-3.38 5.52-3.38-5.53a1.5 1.5 0 0 0 -2.56 1.57l4.19 6.83-17.92 29.29c-.23-.35-.87-1.35-1.13-1.66a3.52 3.52 0 0 0 2.35-5.23l-7.75-12.93a8.29 8.29 0 0 0 -.48-.68 3.53 3.53 0 0 0 2.47-5.46l-11.87-17.27a3.5 3.5 0 0 0 -5.77 0l-11.82 17.27a3.52 3.52 0 0 0 2.48 5.46 6.32 6.32 0 0 0 -.47.68l-7.78 12.93a3.52 3.52 0 0 0 2.35 5.23c-.12.15-.24.3-.35.46l-8.09 12.37a3.52 3.52 0 0 0 2.93 5.41h19.18v12.92a1.5 1.5 0 0 0 1.5 1.5h77.92a1.26 1.26 0 0 0 1.33-.74c.23-.7 1.39-4.58 1.39-4.58a1.49 1.49 0 0 0 -1.03-1.89zm-88.97-47.53a.49.49 0 0 1 0-.52l11.9-17.27a.5.5 0 0 1 .83 0l11.88 17.27a.49.49 0 0 1 0 .52.47.47 0 0 1 -.44.26h-9.9l1-1.41a1.5 1.5 0 0 0 -2.48-1.69l-2.12 3.1h-3.14l2.87-4.17a1.5 1.5 0 0 0 -2.48-1.7l-4 5.87h-3.48a.47.47 0 0 1 -.44-.26zm-5.58 18.39 7.72-12.93a4.51 4.51 0 0 1 3.87-2.19h12.6a4.51 4.51 0 0 1 3.86 2.19l7.73 12.93a.49.49 0 0 1 -.43.75h-21.06l.9-1.55a1.5 1.5 0 0 0 -2.58-1.53l-1.83 3.08h-3.25l2.55-4.28a1.5 1.5 0 0 0 -2.58-1.53l-3.47 5.81h-3.6a.49.49 0 0 1 -.43-.75zm19.34 33.35h-2.9v-11.42h2.9zm-11.09-14.42 1-1.49a1.5 1.5 0 0 0 -2.52-1.64l-2 3.13h-3.25l2.71-4.15a1.5 1.5 0 0 0 -2.51-1.65l-3.8 5.8h-3.62a.47.47 0 0 1 -.44-.26.47.47 0 0 1 0-.51l8.09-12.37a4.52 4.52 0 0 1 3.69-2h24.59a4.52 4.52 0 0 1 3.7 2l1.57 2.4-6.62 10.74zm14.09 3h4.67l-4.67 7.61zm21.23 11.42 13.28-21.68 13.28 21.68zm.28-6.2 2.58-13.92 7.15-2zm29.8 6.2-15.52-25.34a1.49 1.49 0 0 0 -1.28-.71c-.24 0-12.12 3.29-12.12 3.29a1.52 1.52 0 0 0 -1.08 1.17l-4 21.59h-16.12l33.33-54.4 33.33 54.4z"/><path d="m67.1 72.37a6.57 6.57 0 0 0 6.56 6.56c8.68-.31 8.68-12.81 0-13.12a6.58 6.58 0 0 0 -6.56 6.56zm10.12 0a3.56 3.56 0 0 1 -7.12 0 3.56 3.56 0 0 1 7.12 0z"/></g></svg>